<!--<svg xmlns="http://www.w3.org/2000/svg" viewBox="0 0 24 24">
  <path d="M2.926,13.098l3.085,1.209c0.326,0.128,0.578,0.395,0.688,0.727l1.287,3.918c0.274,0.835,1.301,1.134,1.98,0.576l2.228-1.829c0.282-0.232,0.692-0.22,0.961,0.028l2.851,2.63c1.035,0.955,2.716,0.408,2.991-0.973l2.979-14.961c0.186-0.935-0.747-1.698-1.627-1.33l-17.454,7.3C1.687,10.9,1.706,12.62,2.926,13.098z" opacity=".35" fill="#969696" />
  <path d="M11.458,16.271l6.99-9.163c0.328-0.43-0.211-0.982-0.648-0.665L6.467,14.645c0.098,0.115,0.184,0.242,0.232,0.389l1.287,3.918c0.126,0.383,0.413,0.647,0.75,0.773C9.639,19.981,11.458,16.271,11.458,16.271z" fill="#969696" />
</svg>-->
<svg width="24px" height="24px" viewBox="0 0 512 512" version="1.1" xmlns="http://www.w3.org/2000/svg" xmlns:xlink="http://www.w3.org/1999/xlink">
    <title>product</title>
    <g id="Page-1" stroke="none" stroke-width="1" fill="none" fill-rule="evenodd">
        <g id="icon" fill="#969696" transform="translate(64.000000, 34.346667)">
            <path d="M192,7.10542736e-15 L384,110.851252 L384,332.553755 L192,443.405007 L1.42108547e-14,332.553755 L1.42108547e-14,110.851252 L192,7.10542736e-15 Z M127.999,206.918 L128,357.189 L170.666667,381.824 L170.666667,231.552 L127.999,206.918 Z M42.6666667,157.653333 L42.6666667,307.920144 L85.333,332.555 L85.333,182.286 L42.6666667,157.653333 Z M275.991,97.759 L150.413,170.595 L192,194.605531 L317.866667,121.936377 L275.991,97.759 Z M192,49.267223 L66.1333333,121.936377 L107.795,145.989 L233.374,73.154 L192,49.267223 Z" id="Combined-Shape">

</path>
        </g>
    </g>
</svg>